<svg width="0" height="0" style="position:absolute"><symbol fill="none" viewBox="0 0 12 10" id="62d52be21a96a881be1a8420dffc10ff" xmlns="http://www.w3.org/2000/svg"><path d="M11.07 1.773a.309.309 0 00.305-.304V.656a.328.328 0 00-.305-.304H.305A.309.309 0 000 .656v.813c0 .177.127.304.305.304H11.07zm0 4.063a.309.309 0 00.305-.305V4.72a.328.328 0 00-.305-.305H.305A.309.309 0 000 4.72v.812c0 .178.127.305.305.305H11.07zm0 4.062a.309.309 0 00.305-.304V8.78a.328.328 0 00-.305-.304H.305A.309.309 0 000 8.78v.813c0 .177.127.304.305.304H11.07z" fill="#000"/></symbol></svg>