<svg width="0" height="0" style="position:absolute"><symbol fill="none" viewBox="0 0 12 15" id="8b39e3c9093061d699f0ef606f651849" xmlns="http://www.w3.org/2000/svg"><path d="M11.34 4.086c0-.164-.081-.328-.19-.465L8.47.941C8.333.832 8.169.75 8.005.75H7.84v3.5h3.5v-.164zM7.623 5.125h3.719v8.969a.66.66 0 01-.192.465.64.64 0 01-.464.191H1.497c-.191 0-.355-.055-.465-.191-.136-.11-.191-.274-.191-.465V1.406a.64.64 0 01.191-.465.66.66 0 01.465-.191h5.469v3.719c0 .191.055.355.191.465.11.136.274.191.465.191zm-3.418 6.59l.547-.574c0-.028.027-.055.027-.11 0-.054-.027-.082-.054-.11L3.63 9.939l1.094-.985c.027 0 .054-.027.054-.082 0-.055-.027-.082-.027-.137l-.547-.574c-.027 0-.055-.027-.11-.027-.054 0-.081.027-.081.027L2.235 9.828c-.054.055-.054.082-.054.11 0 .054 0 .082.054.109l1.778 1.668c0 .027.027.027.082.027.054 0 .082 0 .11-.027zm1.422 1.367c.027.027.055.027.11 0 .027-.027.054-.055.054-.11l1.695-5.769c0-.027-.027-.055-.027-.11l-.082-.081-.766-.219c-.054 0-.082 0-.109.027-.055.028-.055.055-.055.082l-1.695 5.77c0 .055 0 .082.027.11 0 .054.028.081.082.081l.766.219zm4.375-3.035c.027-.027.055-.055.055-.11 0-.027-.028-.054-.055-.109L8.224 8.16c-.028 0-.055-.027-.11-.027-.054 0-.082.027-.082.027l-.547.574c-.027.055-.027.082-.027.137 0 .055 0 .082.055.082l1.093.985-1.093.984c-.055.027-.055.055-.055.11 0 .054 0 .081.027.109l.547.574c0 .027.028.027.082.027.055 0 .082 0 .11-.027L10 10.047z" fill="#B8BEC3"/></symbol></svg>