<svg width="0" height="0" style="position:absolute"><symbol fill="none" viewBox="0 0 17 15" id="4ce9531290e8e55573faac87d16042f3" xmlns="http://www.w3.org/2000/svg"><path d="M7.398 14.75c.137.027.247-.027.274-.137l3.855-13.261c.028-.11-.027-.247-.136-.274l-1.067-.3c-.11-.028-.246.027-.273.136L6.195 14.176c-.027.11.028.246.164.273l1.04.301zm-2.27-3.309l.74-.793a.214.214 0 000-.3l-2.9-2.598 2.9-2.57a.215.215 0 000-.301l-.74-.793c-.081-.082-.218-.11-.3-.027L1.055 7.613a.215.215 0 000 .301l3.773 3.527a.215.215 0 00.3 0zm7.767 0l3.773-3.527a.215.215 0 000-.3l-3.773-3.555c-.082-.082-.22-.055-.301.027l-.739.793a.214.214 0 000 .3l2.899 2.571-2.899 2.598a.214.214 0 000 .3l.739.793a.215.215 0 00.3 0z" fill="#7F8285"/></symbol></svg>